<?xml version="1.0" encoding="utf-8"?>
<!-- Generator: Adobe Illustrator 26.2.1, SVG Export Plug-In . SVG Version: 6.00 Build 0)  -->
<svg version="1.1" id="sketch" xmlns="http://www.w3.org/2000/svg" xmlns:xlink="http://www.w3.org/1999/xlink" x="0px" y="0px"
	 viewBox="0 0 500 500" style="enable-background:new 0 0 500 500;" xml:space="preserve">
<style type="text/css">
	.st0{fill:#CFCFCE;}
	.st1{fill:#B0B0B0;}
	.st2{fill:#686868;}
	.st3{fill:#353535;}
	.st4{fill:#D0D0CE;}
	.st5{fill:#B0B0B1;}
</style>
<rect x="332.9" y="274.5" class="st0" width="166.4" height="106.5"/>
<rect y="129.5" class="st1" width="332.9" height="332.9"/>
<polygon class="st0" points="332.9,129.5 0,129.5 166.4,47.5 499.3,47.5 "/>
<path class="st2" d="M437.7,338.7c-4.2,6-11.8,12.3-21.2,18.5c15.8-135.1,82-156.2,83.5-227.7l-0.7-82l-166.4,82v332.9
	c0,0,0.4-0.2,1.2-0.5v0.5l165.3-82V274.5C470.8,325.4,461.3,305.1,437.7,338.7z"/>
<circle class="st3" cx="145.9" cy="391.5" r="33.9"/>
<path class="st4" d="M171.8,413c-18.7,0-33.9-15.2-33.9-33.9c0-8.2,2.9-15.7,7.7-21.5c-18.6,0.2-33.6,15.3-33.6,33.9
	c0,18.7,15.2,33.9,33.9,33.9c10.6,0,20-4.8,26.2-12.4C172,413,171.9,413,171.8,413z"/>
<ellipse class="st3" cx="303.7" cy="88.5" rx="33.9" ry="6.6"/>
<path class="st5" d="M270.9,90.1c3.7-2.8,17-4.9,32.8-4.9c15.8,0,29.1,2.1,32.8,4.9c0.7-0.5,1.1-1.1,1.1-1.6
	c0-3.6-15.2-6.6-33.9-6.6c-18.7,0-33.9,2.9-33.9,6.6C269.8,89,270.2,89.6,270.9,90.1z"/>
<ellipse class="st3" cx="407.6" cy="215.2" rx="16.6" ry="33.9"/>
<path class="st4" d="M407.6,181.2c-3,0-5.9,1.7-8.3,4.6c5,5.9,8.3,16.8,8.3,29.3c0,12.5-3.3,23.5-8.3,29.3c2.4,2.9,5.3,4.6,8.3,4.6
	c9.2,0,16.6-15.2,16.6-33.9S416.8,181.2,407.6,181.2z"/>
</svg>
